<?xml version="1.0" standalone="no"?>
<svg xmlns="http://www.w3.org/2000/svg" width="2000" height="2000" viewBox="0 0 2000 2000"><defs><clipPath id="clip-path-dot-color"><rect x="112" y="496" width="48" height="48" transform="rotate(0,136,520)"/><rect x="112" y="688" width="48" height="48" transform="rotate(0,136,712)"/><rect x="112" y="784" width="48" height="48" transform="rotate(0,136,808)"/><rect x="112" y="832" width="48" height="48" transform="rotate(0,136,856)"/><rect x="112" y="1072" width="48" height="48" transform="rotate(0,136,1096)"/><rect x="112" y="1120" width="48" height="48" transform="rotate(0,136,1144)"/><rect x="112" y="1216" width="48" height="48" transform="rotate(0,136,1240)"/><rect x="112" y="1264" width="48" height="48" transform="rotate(0,136,1288)"/><rect x="160" y="496" width="48" height="48" transform="rotate(0,184,520)"/><rect x="160" y="544" width="48" height="48" transform="rotate(0,184,568)"/><rect x="160" y="592" width="48" height="48" transform="rotate(0,184,616)"/><rect x="160" y="640" width="48" height="48" transform="rotate(0,184,664)"/><rect x="160" y="880" width="48" height="48" transform="rotate(0,184,904)"/><rect x="160" y="928" width="48" height="48" transform="rotate(0,184,952)"/><rect x="160" y="1024" width="48" height="48" transform="rotate(0,184,1048)"/><rect x="160" y="1312" width="48" height="48" transform="rotate(0,184,1336)"/><rect x="208" y="592" width="48" height="48" transform="rotate(0,232,616)"/><rect x="208" y="688" width="48" height="48" transform="rotate(0,232,712)"/><rect x="208" y="928" width="48" height="48" transform="rotate(0,232,952)"/><rect x="208" y="1120" width="48" height="48" transform="rotate(0,232,1144)"/><rect x="208" y="1168" width="48" height="48" transform="rotate(0,232,1192)"/><rect x="208" y="1264" width="48" height="48" transform="rotate(0,232,1288)"/><rect x="208" y="1360" width="48" height="48" transform="rotate(0,232,1384)"/><rect x="256" y="832" width="48" height="48" transform="rotate(0,280,856)"/><rect x="256" y="880" width="48" height="48" transform="rotate(0,280,904)"/><rect x="256" y="928" width="48" height="48" transform="rotate(0,280,952)"/><rect x="256" y="1024" width="48" height="48" transform="rotate(0,280,1048)"/><rect x="256" y="1072" width="48" height="48" transform="rotate(0,280,1096)"/><rect x="256" y="1120" width="48" height="48" transform="rotate(0,280,1144)"/><rect x="304" y="544" width="48" height="48" transform="rotate(0,328,568)"/><rect x="304" y="592" width="48" height="48" transform="rotate(0,328,616)"/><rect x="304" y="640" width="48" height="48" transform="rotate(0,328,664)"/><rect x="304" y="688" width="48" height="48" transform="rotate(0,328,712)"/><rect x="304" y="784" width="48" height="48" transform="rotate(0,328,808)"/><rect x="304" y="832" width="48" height="48" transform="rotate(0,328,856)"/><rect x="304" y="976" width="48" height="48" transform="rotate(0,328,1000)"/><rect x="304" y="1024" width="48" height="48" transform="rotate(0,328,1048)"/><rect x="304" y="1072" width="48" height="48" transform="rotate(0,328,1096)"/><rect x="304" y="1120" width="48" height="48" transform="rotate(0,328,1144)"/><rect x="304" y="1216" width="48" height="48" transform="rotate(0,328,1240)"/><rect x="304" y="1264" width="48" height="48" transform="rotate(0,328,1288)"/><rect x="304" y="1360" width="48" height="48" transform="rotate(0,328,1384)"/><rect x="304" y="1408" width="48" height="48" transform="rotate(0,328,1432)"/><rect x="304" y="1456" width="48" height="48" transform="rotate(0,328,1480)"/><rect x="352" y="544" width="48" height="48" transform="rotate(0,376,568)"/><rect x="352" y="640" width="48" height="48" transform="rotate(0,376,664)"/><rect x="352" y="688" width="48" height="48" transform="rotate(0,376,712)"/><rect x="352" y="736" width="48" height="48" transform="rotate(0,376,760)"/><rect x="352" y="784" width="48" height="48" transform="rotate(0,376,808)"/><rect x="352" y="832" width="48" height="48" transform="rotate(0,376,856)"/><rect x="352" y="880" width="48" height="48" transform="rotate(0,376,904)"/><rect x="352" y="1072" width="48" height="48" transform="rotate(0,376,1096)"/><rect x="352" y="1264" width="48" height="48" transform="rotate(0,376,1288)"/><rect x="400" y="496" width="48" height="48" transform="rotate(0,424,520)"/><rect x="400" y="592" width="48" height="48" transform="rotate(0,424,616)"/><rect x="400" y="688" width="48" height="48" transform="rotate(0,424,712)"/><rect x="400" y="784" width="48" height="48" transform="rotate(0,424,808)"/><rect x="400" y="880" width="48" height="48" transform="rotate(0,424,904)"/><rect x="400" y="976" width="48" height="48" transform="rotate(0,424,1000)"/><rect x="400" y="1072" width="48" height="48" transform="rotate(0,424,1096)"/><rect x="400" y="1168" width="48" height="48" transform="rotate(0,424,1192)"/><rect x="400" y="1264" width="48" height="48" transform="rotate(0,424,1288)"/><rect x="400" y="1360" width="48" height="48" transform="rotate(0,424,1384)"/><rect x="400" y="1456" width="48" height="48" transform="rotate(0,424,1480)"/><rect x="448" y="640" width="48" height="48" transform="rotate(0,472,664)"/><rect x="448" y="688" width="48" height="48" transform="rotate(0,472,712)"/><rect x="448" y="736" width="48" height="48" transform="rotate(0,472,760)"/><rect x="448" y="928" width="48" height="48" transform="rotate(0,472,952)"/><rect x="448" y="1024" width="48" height="48" transform="rotate(0,472,1048)"/><rect x="448" y="1072" width="48" height="48" transform="rotate(0,472,1096)"/><rect x="448" y="1216" width="48" height="48" transform="rotate(0,472,1240)"/><rect x="448" y="1264" width="48" height="48" transform="rotate(0,472,1288)"/><rect x="448" y="1360" width="48" height="48" transform="rotate(0,472,1384)"/><rect x="448" y="1408" width="48" height="48" transform="rotate(0,472,1432)"/><rect x="496" y="160" width="48" height="48" transform="rotate(0,520,184)"/><rect x="496" y="400" width="48" height="48" transform="rotate(0,520,424)"/><rect x="496" y="448" width="48" height="48" transform="rotate(0,520,472)"/><rect x="496" y="496" width="48" height="48" transform="rotate(0,520,520)"/><rect x="496" y="544" width="48" height="48" transform="rotate(0,520,568)"/><rect x="496" y="640" width="48" height="48" transform="rotate(0,520,664)"/><rect x="496" y="784" width="48" height="48" transform="rotate(0,520,808)"/><rect x="496" y="832" width="48" height="48" transform="rotate(0,520,856)"/><rect x="496" y="880" width="48" height="48" transform="rotate(0,520,904)"/><rect x="496" y="928" width="48" height="48" transform="rotate(0,520,952)"/><rect x="496" y="1072" width="48" height="48" transform="rotate(0,520,1096)"/><rect x="496" y="1168" width="48" height="48" transform="rotate(0,520,1192)"/><rect x="496" y="1216" width="48" height="48" transform="rotate(0,520,1240)"/><rect x="496" y="1264" width="48" height="48" transform="rotate(0,520,1288)"/><rect x="496" y="1504" width="48" height="48" transform="rotate(0,520,1528)"/><rect x="496" y="1792" width="48" height="48" transform="rotate(0,520,1816)"/><rect x="496" y="1840" width="48" height="48" transform="rotate(0,520,1864)"/><rect x="544" y="208" width="48" height="48" transform="rotate(0,568,232)"/><rect x="544" y="256" width="48" height="48" transform="rotate(0,568,280)"/><rect x="544" y="304" width="48" height="48" transform="rotate(0,568,328)"/><rect x="544" y="592" width="48" height="48" transform="rotate(0,568,616)"/><rect x="544" y="640" width="48" height="48" transform="rotate(0,568,664)"/><rect x="544" y="688" width="48" height="48" transform="rotate(0,568,712)"/><rect x="544" y="736" width="48" height="48" transform="rotate(0,568,760)"/><rect x="544" y="928" width="48" height="48" transform="rotate(0,568,952)"/><rect x="544" y="976" width="48" height="48" transform="rotate(0,568,1000)"/><rect x="544" y="1072" width="48" height="48" transform="rotate(0,568,1096)"/><rect x="544" y="1120" width="48" height="48" transform="rotate(0,568,1144)"/><rect x="544" y="1168" width="48" height="48" transform="rotate(0,568,1192)"/><rect x="544" y="1552" width="48" height="48" transform="rotate(0,568,1576)"/><rect x="544" y="1648" width="48" height="48" transform="rotate(0,568,1672)"/><rect x="592" y="160" width="48" height="48" transform="rotate(0,616,184)"/><rect x="592" y="208" width="48" height="48" transform="rotate(0,616,232)"/><rect x="592" y="256" width="48" height="48" transform="rotate(0,616,280)"/><rect x="592" y="304" width="48" height="48" transform="rotate(0,616,328)"/><rect x="592" y="352" width="48" height="48" transform="rotate(0,616,376)"/><rect x="592" y="400" width="48" height="48" transform="rotate(0,616,424)"/><rect x="592" y="448" width="48" height="48" transform="rotate(0,616,472)"/><rect x="592" y="496" width="48" height="48" transform="rotate(0,616,520)"/><rect x="592" y="544" width="48" height="48" transform="rotate(0,616,568)"/><rect x="592" y="592" width="48" height="48" transform="rotate(0,616,616)"/><rect x="592" y="640" width="48" height="48" transform="rotate(0,616,664)"/><rect x="592" y="784" width="48" height="48" transform="rotate(0,616,808)"/><rect x="592" y="832" width="48" height="48" transform="rotate(0,616,856)"/><rect x="592" y="1024" width="48" height="48" transform="rotate(0,616,1048)"/><rect x="592" y="1072" width="48" height="48" transform="rotate(0,616,1096)"/><rect x="592" y="1360" width="48" height="48" transform="rotate(0,616,1384)"/><rect x="592" y="1504" width="48" height="48" transform="rotate(0,616,1528)"/><rect x="592" y="1600" width="48" height="48" transform="rotate(0,616,1624)"/><rect x="592" y="1648" width="48" height="48" transform="rotate(0,616,1672)"/><rect x="592" y="1792" width="48" height="48" transform="rotate(0,616,1816)"/><rect x="592" y="1840" width="48" height="48" transform="rotate(0,616,1864)"/><rect x="640" y="112" width="48" height="48" transform="rotate(0,664,136)"/><rect x="640" y="160" width="48" height="48" transform="rotate(0,664,184)"/><rect x="640" y="208" width="48" height="48" transform="rotate(0,664,232)"/><rect x="640" y="256" width="48" height="48" transform="rotate(0,664,280)"/><rect x="640" y="448" width="48" height="48" transform="rotate(0,664,472)"/><rect x="640" y="592" width="48" height="48" transform="rotate(0,664,616)"/><rect x="640" y="688" width="48" height="48" transform="rotate(0,664,712)"/><rect x="640" y="832" width="48" height="48" transform="rotate(0,664,856)"/><rect x="640" y="1072" width="48" height="48" transform="rotate(0,664,1096)"/><rect x="640" y="1168" width="48" height="48" transform="rotate(0,664,1192)"/><rect x="640" y="1264" width="48" height="48" transform="rotate(0,664,1288)"/><rect x="640" y="1408" width="48" height="48" transform="rotate(0,664,1432)"/><rect x="640" y="1456" width="48" height="48" transform="rotate(0,664,1480)"/><rect x="640" y="1504" width="48" height="48" transform="rotate(0,664,1528)"/><rect x="640" y="1552" width="48" height="48" transform="rotate(0,664,1576)"/><rect x="640" y="1648" width="48" height="48" transform="rotate(0,664,1672)"/><rect x="640" y="1792" width="48" height="48" transform="rotate(0,664,1816)"/><rect x="640" y="1840" width="48" height="48" transform="rotate(0,664,1864)"/><rect x="688" y="160" width="48" height="48" transform="rotate(0,712,184)"/><rect x="688" y="208" width="48" height="48" transform="rotate(0,712,232)"/><rect x="688" y="256" width="48" height="48" transform="rotate(0,712,280)"/><rect x="688" y="352" width="48" height="48" transform="rotate(0,712,376)"/><rect x="688" y="400" width="48" height="48" transform="rotate(0,712,424)"/><rect x="688" y="592" width="48" height="48" transform="rotate(0,712,616)"/><rect x="688" y="640" width="48" height="48" transform="rotate(0,712,664)"/><rect x="688" y="784" width="48" height="48" transform="rotate(0,712,808)"/><rect x="688" y="880" width="48" height="48" transform="rotate(0,712,904)"/><rect x="688" y="928" width="48" height="48" transform="rotate(0,712,952)"/><rect x="688" y="976" width="48" height="48" transform="rotate(0,712,1000)"/><rect x="688" y="1072" width="48" height="48" transform="rotate(0,712,1096)"/><rect x="688" y="1120" width="48" height="48" transform="rotate(0,712,1144)"/><rect x="688" y="1216" width="48" height="48" transform="rotate(0,712,1240)"/><rect x="688" y="1264" width="48" height="48" transform="rotate(0,712,1288)"/><rect x="688" y="1312" width="48" height="48" transform="rotate(0,712,1336)"/><rect x="688" y="1552" width="48" height="48" transform="rotate(0,712,1576)"/><rect x="688" y="1600" width="48" height="48" transform="rotate(0,712,1624)"/><rect x="688" y="1792" width="48" height="48" transform="rotate(0,712,1816)"/><rect x="688" y="1840" width="48" height="48" transform="rotate(0,712,1864)"/><rect x="736" y="256" width="48" height="48" transform="rotate(0,760,280)"/><rect x="736" y="448" width="48" height="48" transform="rotate(0,760,472)"/><rect x="736" y="496" width="48" height="48" transform="rotate(0,760,520)"/><rect x="736" y="592" width="48" height="48" transform="rotate(0,760,616)"/><rect x="736" y="640" width="48" height="48" transform="rotate(0,760,664)"/><rect x="736" y="736" width="48" height="48" transform="rotate(0,760,760)"/><rect x="736" y="784" width="48" height="48" transform="rotate(0,760,808)"/><rect x="736" y="832" width="48" height="48" transform="rotate(0,760,856)"/><rect x="736" y="976" width="48" height="48" transform="rotate(0,760,1000)"/><rect x="736" y="1024" width="48" height="48" transform="rotate(0,760,1048)"/><rect x="736" y="1120" width="48" height="48" transform="rotate(0,760,1144)"/><rect x="736" y="1216" width="48" height="48" transform="rotate(0,760,1240)"/><rect x="736" y="1408" width="48" height="48" transform="rotate(0,760,1432)"/><rect x="736" y="1504" width="48" height="48" transform="rotate(0,760,1528)"/><rect x="736" y="1552" width="48" height="48" transform="rotate(0,760,1576)"/><rect x="736" y="1600" width="48" height="48" transform="rotate(0,760,1624)"/><rect x="736" y="1696" width="48" height="48" transform="rotate(0,760,1720)"/><rect x="736" y="1744" width="48" height="48" transform="rotate(0,760,1768)"/><rect x="736" y="1792" width="48" height="48" transform="rotate(0,760,1816)"/><rect x="784" y="160" width="48" height="48" transform="rotate(0,808,184)"/><rect x="784" y="208" width="48" height="48" transform="rotate(0,808,232)"/><rect x="784" y="256" width="48" height="48" transform="rotate(0,808,280)"/><rect x="784" y="400" width="48" height="48" transform="rotate(0,808,424)"/><rect x="784" y="448" width="48" height="48" transform="rotate(0,808,472)"/><rect x="784" y="496" width="48" height="48" transform="rotate(0,808,520)"/><rect x="784" y="544" width="48" height="48" transform="rotate(0,808,568)"/><rect x="784" y="736" width="48" height="48" transform="rotate(0,808,760)"/><rect x="784" y="832" width="48" height="48" transform="rotate(0,808,856)"/><rect x="784" y="1168" width="48" height="48" transform="rotate(0,808,1192)"/><rect x="784" y="1264" width="48" height="48" transform="rotate(0,808,1288)"/><rect x="784" y="1312" width="48" height="48" transform="rotate(0,808,1336)"/><rect x="784" y="1408" width="48" height="48" transform="rotate(0,808,1432)"/><rect x="784" y="1456" width="48" height="48" transform="rotate(0,808,1480)"/><rect x="784" y="1552" width="48" height="48" transform="rotate(0,808,1576)"/><rect x="784" y="1648" width="48" height="48" transform="rotate(0,808,1672)"/><rect x="784" y="1792" width="48" height="48" transform="rotate(0,808,1816)"/><rect x="784" y="1840" width="48" height="48" transform="rotate(0,808,1864)"/><rect x="832" y="112" width="48" height="48" transform="rotate(0,856,136)"/><rect x="832" y="160" width="48" height="48" transform="rotate(0,856,184)"/><rect x="832" y="352" width="48" height="48" transform="rotate(0,856,376)"/><rect x="832" y="592" width="48" height="48" transform="rotate(0,856,616)"/><rect x="832" y="640" width="48" height="48" transform="rotate(0,856,664)"/><rect x="832" y="688" width="48" height="48" transform="rotate(0,856,712)"/><rect x="832" y="784" width="48" height="48" transform="rotate(0,856,808)"/><rect x="832" y="928" width="48" height="48" transform="rotate(0,856,952)"/><rect x="832" y="1120" width="48" height="48" transform="rotate(0,856,1144)"/><rect x="832" y="1168" width="48" height="48" transform="rotate(0,856,1192)"/><rect x="832" y="1216" width="48" height="48" transform="rotate(0,856,1240)"/><rect x="832" y="1264" width="48" height="48" transform="rotate(0,856,1288)"/><rect x="832" y="1360" width="48" height="48" transform="rotate(0,856,1384)"/><rect x="832" y="1504" width="48" height="48" transform="rotate(0,856,1528)"/><rect x="832" y="1552" width="48" height="48" transform="rotate(0,856,1576)"/><rect x="832" y="1600" width="48" height="48" transform="rotate(0,856,1624)"/><rect x="832" y="1696" width="48" height="48" transform="rotate(0,856,1720)"/><rect x="832" y="1744" width="48" height="48" transform="rotate(0,856,1768)"/><rect x="832" y="1840" width="48" height="48" transform="rotate(0,856,1864)"/><rect x="880" y="112" width="48" height="48" transform="rotate(0,904,136)"/><rect x="880" y="160" width="48" height="48" transform="rotate(0,904,184)"/><rect x="880" y="256" width="48" height="48" transform="rotate(0,904,280)"/><rect x="880" y="304" width="48" height="48" transform="rotate(0,904,328)"/><rect x="880" y="352" width="48" height="48" transform="rotate(0,904,376)"/><rect x="880" y="400" width="48" height="48" transform="rotate(0,904,424)"/><rect x="880" y="448" width="48" height="48" transform="rotate(0,904,472)"/><rect x="880" y="592" width="48" height="48" transform="rotate(0,904,616)"/><rect x="880" y="640" width="48" height="48" transform="rotate(0,904,664)"/><rect x="880" y="688" width="48" height="48" transform="rotate(0,904,712)"/><rect x="880" y="880" width="48" height="48" transform="rotate(0,904,904)"/><rect x="880" y="976" width="48" height="48" transform="rotate(0,904,1000)"/><rect x="880" y="1024" width="48" height="48" transform="rotate(0,904,1048)"/><rect x="880" y="1072" width="48" height="48" transform="rotate(0,904,1096)"/><rect x="880" y="1120" width="48" height="48" transform="rotate(0,904,1144)"/><rect x="880" y="1168" width="48" height="48" transform="rotate(0,904,1192)"/><rect x="880" y="1264" width="48" height="48" transform="rotate(0,904,1288)"/><rect x="880" y="1312" width="48" height="48" transform="rotate(0,904,1336)"/><rect x="880" y="1360" width="48" height="48" transform="rotate(0,904,1384)"/><rect x="880" y="1504" width="48" height="48" transform="rotate(0,904,1528)"/><rect x="880" y="1552" width="48" height="48" transform="rotate(0,904,1576)"/><rect x="880" y="1648" width="48" height="48" transform="rotate(0,904,1672)"/><rect x="880" y="1696" width="48" height="48" transform="rotate(0,904,1720)"/><rect x="880" y="1792" width="48" height="48" transform="rotate(0,904,1816)"/><rect x="880" y="1840" width="48" height="48" transform="rotate(0,904,1864)"/><rect x="928" y="112" width="48" height="48" transform="rotate(0,952,136)"/><rect x="928" y="160" width="48" height="48" transform="rotate(0,952,184)"/><rect x="928" y="304" width="48" height="48" transform="rotate(0,952,328)"/><rect x="928" y="352" width="48" height="48" transform="rotate(0,952,376)"/><rect x="928" y="592" width="48" height="48" transform="rotate(0,952,616)"/><rect x="928" y="688" width="48" height="48" transform="rotate(0,952,712)"/><rect x="928" y="784" width="48" height="48" transform="rotate(0,952,808)"/><rect x="928" y="832" width="48" height="48" transform="rotate(0,952,856)"/><rect x="928" y="880" width="48" height="48" transform="rotate(0,952,904)"/><rect x="928" y="976" width="48" height="48" transform="rotate(0,952,1000)"/><rect x="928" y="1024" width="48" height="48" transform="rotate(0,952,1048)"/><rect x="928" y="1072" width="48" height="48" transform="rotate(0,952,1096)"/><rect x="928" y="1408" width="48" height="48" transform="rotate(0,952,1432)"/><rect x="928" y="1456" width="48" height="48" transform="rotate(0,952,1480)"/><rect x="928" y="1600" width="48" height="48" transform="rotate(0,952,1624)"/><rect x="928" y="1744" width="48" height="48" transform="rotate(0,952,1768)"/><rect x="928" y="1840" width="48" height="48" transform="rotate(0,952,1864)"/><rect x="976" y="160" width="48" height="48" transform="rotate(0,1000,184)"/><rect x="976" y="256" width="48" height="48" transform="rotate(0,1000,280)"/><rect x="976" y="304" width="48" height="48" transform="rotate(0,1000,328)"/><rect x="976" y="400" width="48" height="48" transform="rotate(0,1000,424)"/><rect x="976" y="592" width="48" height="48" transform="rotate(0,1000,616)"/><rect x="976" y="640" width="48" height="48" transform="rotate(0,1000,664)"/><rect x="976" y="736" width="48" height="48" transform="rotate(0,1000,760)"/><rect x="976" y="784" width="48" height="48" transform="rotate(0,1000,808)"/><rect x="976" y="832" width="48" height="48" transform="rotate(0,1000,856)"/><rect x="976" y="880" width="48" height="48" transform="rotate(0,1000,904)"/><rect x="976" y="928" width="48" height="48" transform="rotate(0,1000,952)"/><rect x="976" y="1072" width="48" height="48" transform="rotate(0,1000,1096)"/><rect x="976" y="1120" width="48" height="48" transform="rotate(0,1000,1144)"/><rect x="976" y="1264" width="48" height="48" transform="rotate(0,1000,1288)"/><rect x="976" y="1360" width="48" height="48" transform="rotate(0,1000,1384)"/><rect x="976" y="1408" width="48" height="48" transform="rotate(0,1000,1432)"/><rect x="976" y="1504" width="48" height="48" transform="rotate(0,1000,1528)"/><rect x="976" y="1552" width="48" height="48" transform="rotate(0,1000,1576)"/><rect x="976" y="1600" width="48" height="48" transform="rotate(0,1000,1624)"/><rect x="976" y="1648" width="48" height="48" transform="rotate(0,1000,1672)"/><rect x="976" y="1744" width="48" height="48" transform="rotate(0,1000,1768)"/><rect x="976" y="1840" width="48" height="48" transform="rotate(0,1000,1864)"/><rect x="1024" y="160" width="48" height="48" transform="rotate(0,1048,184)"/><rect x="1024" y="304" width="48" height="48" transform="rotate(0,1048,328)"/><rect x="1024" y="448" width="48" height="48" transform="rotate(0,1048,472)"/><rect x="1024" y="592" width="48" height="48" transform="rotate(0,1048,616)"/><rect x="1024" y="736" width="48" height="48" transform="rotate(0,1048,760)"/><rect x="1024" y="880" width="48" height="48" transform="rotate(0,1048,904)"/><rect x="1024" y="928" width="48" height="48" transform="rotate(0,1048,952)"/><rect x="1024" y="1024" width="48" height="48" transform="rotate(0,1048,1048)"/><rect x="1024" y="1216" width="48" height="48" transform="rotate(0,1048,1240)"/><rect x="1024" y="1360" width="48" height="48" transform="rotate(0,1048,1384)"/><rect x="1024" y="1504" width="48" height="48" transform="rotate(0,1048,1528)"/><rect x="1024" y="1696" width="48" height="48" transform="rotate(0,1048,1720)"/><rect x="1024" y="1792" width="48" height="48" transform="rotate(0,1048,1816)"/><rect x="1024" y="1840" width="48" height="48" transform="rotate(0,1048,1864)"/><rect x="1072" y="112" width="48" height="48" transform="rotate(0,1096,136)"/><rect x="1072" y="160" width="48" height="48" transform="rotate(0,1096,184)"/><rect x="1072" y="256" width="48" height="48" transform="rotate(0,1096,280)"/><rect x="1072" y="304" width="48" height="48" transform="rotate(0,1096,328)"/><rect x="1072" y="352" width="48" height="48" transform="rotate(0,1096,376)"/><rect x="1072" y="400" width="48" height="48" transform="rotate(0,1096,424)"/><rect x="1072" y="496" width="48" height="48" transform="rotate(0,1096,520)"/><rect x="1072" y="592" width="48" height="48" transform="rotate(0,1096,616)"/><rect x="1072" y="688" width="48" height="48" transform="rotate(0,1096,712)"/><rect x="1072" y="736" width="48" height="48" transform="rotate(0,1096,760)"/><rect x="1072" y="784" width="48" height="48" transform="rotate(0,1096,808)"/><rect x="1072" y="928" width="48" height="48" transform="rotate(0,1096,952)"/><rect x="1072" y="976" width="48" height="48" transform="rotate(0,1096,1000)"/><rect x="1072" y="1024" width="48" height="48" transform="rotate(0,1096,1048)"/><rect x="1072" y="1168" width="48" height="48" transform="rotate(0,1096,1192)"/><rect x="1072" y="1216" width="48" height="48" transform="rotate(0,1096,1240)"/><rect x="1072" y="1360" width="48" height="48" transform="rotate(0,1096,1384)"/><rect x="1072" y="1456" width="48" height="48" transform="rotate(0,1096,1480)"/><rect x="1072" y="1504" width="48" height="48" transform="rotate(0,1096,1528)"/><rect x="1072" y="1552" width="48" height="48" transform="rotate(0,1096,1576)"/><rect x="1072" y="1696" width="48" height="48" transform="rotate(0,1096,1720)"/><rect x="1072" y="1744" width="48" height="48" transform="rotate(0,1096,1768)"/><rect x="1072" y="1840" width="48" height="48" transform="rotate(0,1096,1864)"/><rect x="1120" y="112" width="48" height="48" transform="rotate(0,1144,136)"/><rect x="1120" y="208" width="48" height="48" transform="rotate(0,1144,232)"/><rect x="1120" y="256" width="48" height="48" transform="rotate(0,1144,280)"/><rect x="1120" y="304" width="48" height="48" transform="rotate(0,1144,328)"/><rect x="1120" y="448" width="48" height="48" transform="rotate(0,1144,472)"/><rect x="1120" y="496" width="48" height="48" transform="rotate(0,1144,520)"/><rect x="1120" y="592" width="48" height="48" transform="rotate(0,1144,616)"/><rect x="1120" y="688" width="48" height="48" transform="rotate(0,1144,712)"/><rect x="1120" y="736" width="48" height="48" transform="rotate(0,1144,760)"/><rect x="1120" y="880" width="48" height="48" transform="rotate(0,1144,904)"/><rect x="1120" y="1024" width="48" height="48" transform="rotate(0,1144,1048)"/><rect x="1120" y="1072" width="48" height="48" transform="rotate(0,1144,1096)"/><rect x="1120" y="1168" width="48" height="48" transform="rotate(0,1144,1192)"/><rect x="1120" y="1216" width="48" height="48" transform="rotate(0,1144,1240)"/><rect x="1120" y="1264" width="48" height="48" transform="rotate(0,1144,1288)"/><rect x="1120" y="1312" width="48" height="48" transform="rotate(0,1144,1336)"/><rect x="1120" y="1408" width="48" height="48" transform="rotate(0,1144,1432)"/><rect x="1120" y="1456" width="48" height="48" transform="rotate(0,1144,1480)"/><rect x="1120" y="1600" width="48" height="48" transform="rotate(0,1144,1624)"/><rect x="1120" y="1648" width="48" height="48" transform="rotate(0,1144,1672)"/><rect x="1120" y="1792" width="48" height="48" transform="rotate(0,1144,1816)"/><rect x="1120" y="1840" width="48" height="48" transform="rotate(0,1144,1864)"/><rect x="1168" y="208" width="48" height="48" transform="rotate(0,1192,232)"/><rect x="1168" y="304" width="48" height="48" transform="rotate(0,1192,328)"/><rect x="1168" y="400" width="48" height="48" transform="rotate(0,1192,424)"/><rect x="1168" y="496" width="48" height="48" transform="rotate(0,1192,520)"/><rect x="1168" y="688" width="48" height="48" transform="rotate(0,1192,712)"/><rect x="1168" y="832" width="48" height="48" transform="rotate(0,1192,856)"/><rect x="1168" y="880" width="48" height="48" transform="rotate(0,1192,904)"/><rect x="1168" y="928" width="48" height="48" transform="rotate(0,1192,952)"/><rect x="1168" y="1024" width="48" height="48" transform="rotate(0,1192,1048)"/><rect x="1168" y="1072" width="48" height="48" transform="rotate(0,1192,1096)"/><rect x="1168" y="1168" width="48" height="48" transform="rotate(0,1192,1192)"/><rect x="1168" y="1264" width="48" height="48" transform="rotate(0,1192,1288)"/><rect x="1168" y="1312" width="48" height="48" transform="rotate(0,1192,1336)"/><rect x="1168" y="1360" width="48" height="48" transform="rotate(0,1192,1384)"/><rect x="1168" y="1408" width="48" height="48" transform="rotate(0,1192,1432)"/><rect x="1168" y="1456" width="48" height="48" transform="rotate(0,1192,1480)"/><rect x="1168" y="1504" width="48" height="48" transform="rotate(0,1192,1528)"/><rect x="1168" y="1792" width="48" height="48" transform="rotate(0,1192,1816)"/><rect x="1168" y="1840" width="48" height="48" transform="rotate(0,1192,1864)"/><rect x="1216" y="160" width="48" height="48" transform="rotate(0,1240,184)"/><rect x="1216" y="208" width="48" height="48" transform="rotate(0,1240,232)"/><rect x="1216" y="304" width="48" height="48" transform="rotate(0,1240,328)"/><rect x="1216" y="352" width="48" height="48" transform="rotate(0,1240,376)"/><rect x="1216" y="544" width="48" height="48" transform="rotate(0,1240,568)"/><rect x="1216" y="640" width="48" height="48" transform="rotate(0,1240,664)"/><rect x="1216" y="736" width="48" height="48" transform="rotate(0,1240,760)"/><rect x="1216" y="880" width="48" height="48" transform="rotate(0,1240,904)"/><rect x="1216" y="976" width="48" height="48" transform="rotate(0,1240,1000)"/><rect x="1216" y="1168" width="48" height="48" transform="rotate(0,1240,1192)"/><rect x="1216" y="1216" width="48" height="48" transform="rotate(0,1240,1240)"/><rect x="1216" y="1264" width="48" height="48" transform="rotate(0,1240,1288)"/><rect x="1216" y="1312" width="48" height="48" transform="rotate(0,1240,1336)"/><rect x="1216" y="1408" width="48" height="48" transform="rotate(0,1240,1432)"/><rect x="1216" y="1456" width="48" height="48" transform="rotate(0,1240,1480)"/><rect x="1216" y="1600" width="48" height="48" transform="rotate(0,1240,1624)"/><rect x="1216" y="1696" width="48" height="48" transform="rotate(0,1240,1720)"/><rect x="1216" y="1840" width="48" height="48" transform="rotate(0,1240,1864)"/><rect x="1264" y="112" width="48" height="48" transform="rotate(0,1288,136)"/><rect x="1264" y="160" width="48" height="48" transform="rotate(0,1288,184)"/><rect x="1264" y="208" width="48" height="48" transform="rotate(0,1288,232)"/><rect x="1264" y="256" width="48" height="48" transform="rotate(0,1288,280)"/><rect x="1264" y="304" width="48" height="48" transform="rotate(0,1288,328)"/><rect x="1264" y="352" width="48" height="48" transform="rotate(0,1288,376)"/><rect x="1264" y="400" width="48" height="48" transform="rotate(0,1288,424)"/><rect x="1264" y="640" width="48" height="48" transform="rotate(0,1288,664)"/><rect x="1264" y="832" width="48" height="48" transform="rotate(0,1288,856)"/><rect x="1264" y="928" width="48" height="48" transform="rotate(0,1288,952)"/><rect x="1264" y="976" width="48" height="48" transform="rotate(0,1288,1000)"/><rect x="1264" y="1024" width="48" height="48" transform="rotate(0,1288,1048)"/><rect x="1264" y="1072" width="48" height="48" transform="rotate(0,1288,1096)"/><rect x="1264" y="1216" width="48" height="48" transform="rotate(0,1288,1240)"/><rect x="1264" y="1264" width="48" height="48" transform="rotate(0,1288,1288)"/><rect x="1264" y="1312" width="48" height="48" transform="rotate(0,1288,1336)"/><rect x="1264" y="1408" width="48" height="48" transform="rotate(0,1288,1432)"/><rect x="1264" y="1696" width="48" height="48" transform="rotate(0,1288,1720)"/><rect x="1264" y="1840" width="48" height="48" transform="rotate(0,1288,1864)"/><rect x="1312" y="112" width="48" height="48" transform="rotate(0,1336,136)"/><rect x="1312" y="160" width="48" height="48" transform="rotate(0,1336,184)"/><rect x="1312" y="352" width="48" height="48" transform="rotate(0,1336,376)"/><rect x="1312" y="448" width="48" height="48" transform="rotate(0,1336,472)"/><rect x="1312" y="544" width="48" height="48" transform="rotate(0,1336,568)"/><rect x="1312" y="592" width="48" height="48" transform="rotate(0,1336,616)"/><rect x="1312" y="688" width="48" height="48" transform="rotate(0,1336,712)"/><rect x="1312" y="736" width="48" height="48" transform="rotate(0,1336,760)"/><rect x="1312" y="784" width="48" height="48" transform="rotate(0,1336,808)"/><rect x="1312" y="928" width="48" height="48" transform="rotate(0,1336,952)"/><rect x="1312" y="1216" width="48" height="48" transform="rotate(0,1336,1240)"/><rect x="1312" y="1312" width="48" height="48" transform="rotate(0,1336,1336)"/><rect x="1312" y="1552" width="48" height="48" transform="rotate(0,1336,1576)"/><rect x="1312" y="1744" width="48" height="48" transform="rotate(0,1336,1768)"/><rect x="1360" y="112" width="48" height="48" transform="rotate(0,1384,136)"/><rect x="1360" y="256" width="48" height="48" transform="rotate(0,1384,280)"/><rect x="1360" y="352" width="48" height="48" transform="rotate(0,1384,376)"/><rect x="1360" y="400" width="48" height="48" transform="rotate(0,1384,424)"/><rect x="1360" y="448" width="48" height="48" transform="rotate(0,1384,472)"/><rect x="1360" y="544" width="48" height="48" transform="rotate(0,1384,568)"/><rect x="1360" y="688" width="48" height="48" transform="rotate(0,1384,712)"/><rect x="1360" y="880" width="48" height="48" transform="rotate(0,1384,904)"/><rect x="1360" y="976" width="48" height="48" transform="rotate(0,1384,1000)"/><rect x="1360" y="1072" width="48" height="48" transform="rotate(0,1384,1096)"/><rect x="1360" y="1264" width="48" height="48" transform="rotate(0,1384,1288)"/><rect x="1360" y="1312" width="48" height="48" transform="rotate(0,1384,1336)"/><rect x="1360" y="1360" width="48" height="48" transform="rotate(0,1384,1384)"/><rect x="1360" y="1408" width="48" height="48" transform="rotate(0,1384,1432)"/><rect x="1360" y="1456" width="48" height="48" transform="rotate(0,1384,1480)"/><rect x="1360" y="1552" width="48" height="48" transform="rotate(0,1384,1576)"/><rect x="1360" y="1600" width="48" height="48" transform="rotate(0,1384,1624)"/><rect x="1360" y="1648" width="48" height="48" transform="rotate(0,1384,1672)"/><rect x="1360" y="1696" width="48" height="48" transform="rotate(0,1384,1720)"/><rect x="1360" y="1744" width="48" height="48" transform="rotate(0,1384,1768)"/><rect x="1360" y="1792" width="48" height="48" transform="rotate(0,1384,1816)"/><rect x="1360" y="1840" width="48" height="48" transform="rotate(0,1384,1864)"/><rect x="1408" y="112" width="48" height="48" transform="rotate(0,1432,136)"/><rect x="1408" y="208" width="48" height="48" transform="rotate(0,1432,232)"/><rect x="1408" y="256" width="48" height="48" transform="rotate(0,1432,280)"/><rect x="1408" y="496" width="48" height="48" transform="rotate(0,1432,520)"/><rect x="1408" y="544" width="48" height="48" transform="rotate(0,1432,568)"/><rect x="1408" y="640" width="48" height="48" transform="rotate(0,1432,664)"/><rect x="1408" y="976" width="48" height="48" transform="rotate(0,1432,1000)"/><rect x="1408" y="1024" width="48" height="48" transform="rotate(0,1432,1048)"/><rect x="1408" y="1168" width="48" height="48" transform="rotate(0,1432,1192)"/><rect x="1408" y="1456" width="48" height="48" transform="rotate(0,1432,1480)"/><rect x="1408" y="1504" width="48" height="48" transform="rotate(0,1432,1528)"/><rect x="1408" y="1744" width="48" height="48" transform="rotate(0,1432,1768)"/><rect x="1408" y="1792" width="48" height="48" transform="rotate(0,1432,1816)"/><rect x="1408" y="1840" width="48" height="48" transform="rotate(0,1432,1864)"/><rect x="1456" y="112" width="48" height="48" transform="rotate(0,1480,136)"/><rect x="1456" y="256" width="48" height="48" transform="rotate(0,1480,280)"/><rect x="1456" y="304" width="48" height="48" transform="rotate(0,1480,328)"/><rect x="1456" y="400" width="48" height="48" transform="rotate(0,1480,424)"/><rect x="1456" y="448" width="48" height="48" transform="rotate(0,1480,472)"/><rect x="1456" y="496" width="48" height="48" transform="rotate(0,1480,520)"/><rect x="1456" y="544" width="48" height="48" transform="rotate(0,1480,568)"/><rect x="1456" y="592" width="48" height="48" transform="rotate(0,1480,616)"/><rect x="1456" y="688" width="48" height="48" transform="rotate(0,1480,712)"/><rect x="1456" y="736" width="48" height="48" transform="rotate(0,1480,760)"/><rect x="1456" y="784" width="48" height="48" transform="rotate(0,1480,808)"/><rect x="1456" y="832" width="48" height="48" transform="rotate(0,1480,856)"/><rect x="1456" y="928" width="48" height="48" transform="rotate(0,1480,952)"/><rect x="1456" y="1072" width="48" height="48" transform="rotate(0,1480,1096)"/><rect x="1456" y="1120" width="48" height="48" transform="rotate(0,1480,1144)"/><rect x="1456" y="1168" width="48" height="48" transform="rotate(0,1480,1192)"/><rect x="1456" y="1312" width="48" height="48" transform="rotate(0,1480,1336)"/><rect x="1456" y="1408" width="48" height="48" transform="rotate(0,1480,1432)"/><rect x="1456" y="1456" width="48" height="48" transform="rotate(0,1480,1480)"/><rect x="1456" y="1504" width="48" height="48" transform="rotate(0,1480,1528)"/><rect x="1456" y="1552" width="48" height="48" transform="rotate(0,1480,1576)"/><rect x="1456" y="1600" width="48" height="48" transform="rotate(0,1480,1624)"/><rect x="1456" y="1648" width="48" height="48" transform="rotate(0,1480,1672)"/><rect x="1456" y="1744" width="48" height="48" transform="rotate(0,1480,1768)"/><rect x="1456" y="1792" width="48" height="48" transform="rotate(0,1480,1816)"/><rect x="1504" y="496" width="48" height="48" transform="rotate(0,1528,520)"/><rect x="1504" y="544" width="48" height="48" transform="rotate(0,1528,568)"/><rect x="1504" y="592" width="48" height="48" transform="rotate(0,1528,616)"/><rect x="1504" y="640" width="48" height="48" transform="rotate(0,1528,664)"/><rect x="1504" y="832" width="48" height="48" transform="rotate(0,1528,856)"/><rect x="1504" y="928" width="48" height="48" transform="rotate(0,1528,952)"/><rect x="1504" y="1072" width="48" height="48" transform="rotate(0,1528,1096)"/><rect x="1504" y="1216" width="48" height="48" transform="rotate(0,1528,1240)"/><rect x="1504" y="1360" width="48" height="48" transform="rotate(0,1528,1384)"/><rect x="1504" y="1456" width="48" height="48" transform="rotate(0,1528,1480)"/><rect x="1504" y="1648" width="48" height="48" transform="rotate(0,1528,1672)"/><rect x="1504" y="1792" width="48" height="48" transform="rotate(0,1528,1816)"/><rect x="1552" y="496" width="48" height="48" transform="rotate(0,1576,520)"/><rect x="1552" y="544" width="48" height="48" transform="rotate(0,1576,568)"/><rect x="1552" y="592" width="48" height="48" transform="rotate(0,1576,616)"/><rect x="1552" y="640" width="48" height="48" transform="rotate(0,1576,664)"/><rect x="1552" y="736" width="48" height="48" transform="rotate(0,1576,760)"/><rect x="1552" y="784" width="48" height="48" transform="rotate(0,1576,808)"/><rect x="1552" y="832" width="48" height="48" transform="rotate(0,1576,856)"/><rect x="1552" y="880" width="48" height="48" transform="rotate(0,1576,904)"/><rect x="1552" y="928" width="48" height="48" transform="rotate(0,1576,952)"/><rect x="1552" y="1024" width="48" height="48" transform="rotate(0,1576,1048)"/><rect x="1552" y="1120" width="48" height="48" transform="rotate(0,1576,1144)"/><rect x="1552" y="1168" width="48" height="48" transform="rotate(0,1576,1192)"/><rect x="1552" y="1216" width="48" height="48" transform="rotate(0,1576,1240)"/><rect x="1552" y="1264" width="48" height="48" transform="rotate(0,1576,1288)"/><rect x="1552" y="1312" width="48" height="48" transform="rotate(0,1576,1336)"/><rect x="1552" y="1360" width="48" height="48" transform="rotate(0,1576,1384)"/><rect x="1552" y="1456" width="48" height="48" transform="rotate(0,1576,1480)"/><rect x="1552" y="1552" width="48" height="48" transform="rotate(0,1576,1576)"/><rect x="1552" y="1648" width="48" height="48" transform="rotate(0,1576,1672)"/><rect x="1552" y="1744" width="48" height="48" transform="rotate(0,1576,1768)"/><rect x="1552" y="1840" width="48" height="48" transform="rotate(0,1576,1864)"/><rect x="1600" y="544" width="48" height="48" transform="rotate(0,1624,568)"/><rect x="1600" y="784" width="48" height="48" transform="rotate(0,1624,808)"/><rect x="1600" y="880" width="48" height="48" transform="rotate(0,1624,904)"/><rect x="1600" y="928" width="48" height="48" transform="rotate(0,1624,952)"/><rect x="1600" y="1168" width="48" height="48" transform="rotate(0,1624,1192)"/><rect x="1600" y="1216" width="48" height="48" transform="rotate(0,1624,1240)"/><rect x="1600" y="1264" width="48" height="48" transform="rotate(0,1624,1288)"/><rect x="1600" y="1360" width="48" height="48" transform="rotate(0,1624,1384)"/><rect x="1600" y="1408" width="48" height="48" transform="rotate(0,1624,1432)"/><rect x="1600" y="1456" width="48" height="48" transform="rotate(0,1624,1480)"/><rect x="1600" y="1648" width="48" height="48" transform="rotate(0,1624,1672)"/><rect x="1600" y="1696" width="48" height="48" transform="rotate(0,1624,1720)"/><rect x="1600" y="1792" width="48" height="48" transform="rotate(0,1624,1816)"/><rect x="1600" y="1840" width="48" height="48" transform="rotate(0,1624,1864)"/><rect x="1648" y="544" width="48" height="48" transform="rotate(0,1672,568)"/><rect x="1648" y="592" width="48" height="48" transform="rotate(0,1672,616)"/><rect x="1648" y="640" width="48" height="48" transform="rotate(0,1672,664)"/><rect x="1648" y="688" width="48" height="48" transform="rotate(0,1672,712)"/><rect x="1648" y="736" width="48" height="48" transform="rotate(0,1672,760)"/><rect x="1648" y="832" width="48" height="48" transform="rotate(0,1672,856)"/><rect x="1648" y="1024" width="48" height="48" transform="rotate(0,1672,1048)"/><rect x="1648" y="1120" width="48" height="48" transform="rotate(0,1672,1144)"/><rect x="1648" y="1216" width="48" height="48" transform="rotate(0,1672,1240)"/><rect x="1648" y="1312" width="48" height="48" transform="rotate(0,1672,1336)"/><rect x="1648" y="1360" width="48" height="48" transform="rotate(0,1672,1384)"/><rect x="1648" y="1408" width="48" height="48" transform="rotate(0,1672,1432)"/><rect x="1648" y="1456" width="48" height="48" transform="rotate(0,1672,1480)"/><rect x="1648" y="1504" width="48" height="48" transform="rotate(0,1672,1528)"/><rect x="1648" y="1552" width="48" height="48" transform="rotate(0,1672,1576)"/><rect x="1648" y="1600" width="48" height="48" transform="rotate(0,1672,1624)"/><rect x="1648" y="1648" width="48" height="48" transform="rotate(0,1672,1672)"/><rect x="1696" y="544" width="48" height="48" transform="rotate(0,1720,568)"/><rect x="1696" y="592" width="48" height="48" transform="rotate(0,1720,616)"/><rect x="1696" y="640" width="48" height="48" transform="rotate(0,1720,664)"/><rect x="1696" y="688" width="48" height="48" transform="rotate(0,1720,712)"/><rect x="1696" y="736" width="48" height="48" transform="rotate(0,1720,760)"/><rect x="1696" y="928" width="48" height="48" transform="rotate(0,1720,952)"/><rect x="1696" y="1120" width="48" height="48" transform="rotate(0,1720,1144)"/><rect x="1696" y="1264" width="48" height="48" transform="rotate(0,1720,1288)"/><rect x="1696" y="1408" width="48" height="48" transform="rotate(0,1720,1432)"/><rect x="1696" y="1504" width="48" height="48" transform="rotate(0,1720,1528)"/><rect x="1696" y="1552" width="48" height="48" transform="rotate(0,1720,1576)"/><rect x="1696" y="1744" width="48" height="48" transform="rotate(0,1720,1768)"/><rect x="1696" y="1792" width="48" height="48" transform="rotate(0,1720,1816)"/><rect x="1744" y="544" width="48" height="48" transform="rotate(0,1768,568)"/><rect x="1744" y="640" width="48" height="48" transform="rotate(0,1768,664)"/><rect x="1744" y="688" width="48" height="48" transform="rotate(0,1768,712)"/><rect x="1744" y="784" width="48" height="48" transform="rotate(0,1768,808)"/><rect x="1744" y="832" width="48" height="48" transform="rotate(0,1768,856)"/><rect x="1744" y="880" width="48" height="48" transform="rotate(0,1768,904)"/><rect x="1744" y="976" width="48" height="48" transform="rotate(0,1768,1000)"/><rect x="1744" y="1024" width="48" height="48" transform="rotate(0,1768,1048)"/><rect x="1744" y="1168" width="48" height="48" transform="rotate(0,1768,1192)"/><rect x="1744" y="1360" width="48" height="48" transform="rotate(0,1768,1384)"/><rect x="1744" y="1456" width="48" height="48" transform="rotate(0,1768,1480)"/><rect x="1744" y="1552" width="48" height="48" transform="rotate(0,1768,1576)"/><rect x="1744" y="1840" width="48" height="48" transform="rotate(0,1768,1864)"/><rect x="1792" y="496" width="48" height="48" transform="rotate(0,1816,520)"/><rect x="1792" y="544" width="48" height="48" transform="rotate(0,1816,568)"/><rect x="1792" y="592" width="48" height="48" transform="rotate(0,1816,616)"/><rect x="1792" y="640" width="48" height="48" transform="rotate(0,1816,664)"/><rect x="1792" y="688" width="48" height="48" transform="rotate(0,1816,712)"/><rect x="1792" y="736" width="48" height="48" transform="rotate(0,1816,760)"/><rect x="1792" y="832" width="48" height="48" transform="rotate(0,1816,856)"/><rect x="1792" y="880" width="48" height="48" transform="rotate(0,1816,904)"/><rect x="1792" y="976" width="48" height="48" transform="rotate(0,1816,1000)"/><rect x="1792" y="1024" width="48" height="48" transform="rotate(0,1816,1048)"/><rect x="1792" y="1072" width="48" height="48" transform="rotate(0,1816,1096)"/><rect x="1792" y="1168" width="48" height="48" transform="rotate(0,1816,1192)"/><rect x="1792" y="1264" width="48" height="48" transform="rotate(0,1816,1288)"/><rect x="1792" y="1360" width="48" height="48" transform="rotate(0,1816,1384)"/><rect x="1792" y="1456" width="48" height="48" transform="rotate(0,1816,1480)"/><rect x="1792" y="1504" width="48" height="48" transform="rotate(0,1816,1528)"/><rect x="1792" y="1552" width="48" height="48" transform="rotate(0,1816,1576)"/><rect x="1792" y="1696" width="48" height="48" transform="rotate(0,1816,1720)"/><rect x="1792" y="1840" width="48" height="48" transform="rotate(0,1816,1864)"/><rect x="1840" y="544" width="48" height="48" transform="rotate(0,1864,568)"/><rect x="1840" y="592" width="48" height="48" transform="rotate(0,1864,616)"/><rect x="1840" y="640" width="48" height="48" transform="rotate(0,1864,664)"/><rect x="1840" y="688" width="48" height="48" transform="rotate(0,1864,712)"/><rect x="1840" y="832" width="48" height="48" transform="rotate(0,1864,856)"/><rect x="1840" y="880" width="48" height="48" transform="rotate(0,1864,904)"/><rect x="1840" y="928" width="48" height="48" transform="rotate(0,1864,952)"/><rect x="1840" y="976" width="48" height="48" transform="rotate(0,1864,1000)"/><rect x="1840" y="1072" width="48" height="48" transform="rotate(0,1864,1096)"/><rect x="1840" y="1120" width="48" height="48" transform="rotate(0,1864,1144)"/><rect x="1840" y="1216" width="48" height="48" transform="rotate(0,1864,1240)"/><rect x="1840" y="1264" width="48" height="48" transform="rotate(0,1864,1288)"/><rect x="1840" y="1312" width="48" height="48" transform="rotate(0,1864,1336)"/><rect x="1840" y="1456" width="48" height="48" transform="rotate(0,1864,1480)"/><rect x="1840" y="1504" width="48" height="48" transform="rotate(0,1864,1528)"/><rect x="1840" y="1552" width="48" height="48" transform="rotate(0,1864,1576)"/><rect x="1840" y="1840" width="48" height="48" transform="rotate(0,1864,1864)"/></clipPath><clipPath id="clip-path-corners-square-color-0-0"><rect x="112" y="112" width="48" height="48" transform="rotate(0,136,136)"/><rect x="112" y="160" width="48" height="48" transform="rotate(0,136,184)"/><rect x="112" y="208" width="48" height="48" transform="rotate(0,136,232)"/><rect x="112" y="256" width="48" height="48" transform="rotate(0,136,280)"/><rect x="112" y="304" width="48" height="48" transform="rotate(0,136,328)"/><rect x="112" y="352" width="48" height="48" transform="rotate(0,136,376)"/><rect x="112" y="400" width="48" height="48" transform="rotate(0,136,424)"/><rect x="160" y="112" width="48" height="48" transform="rotate(0,184,136)"/><rect x="160" y="400" width="48" height="48" transform="rotate(0,184,424)"/><rect x="208" y="112" width="48" height="48" transform="rotate(0,232,136)"/><rect x="208" y="400" width="48" height="48" transform="rotate(0,232,424)"/><rect x="256" y="112" width="48" height="48" transform="rotate(0,280,136)"/><rect x="256" y="400" width="48" height="48" transform="rotate(0,280,424)"/><rect x="304" y="112" width="48" height="48" transform="rotate(0,328,136)"/><rect x="304" y="400" width="48" height="48" transform="rotate(0,328,424)"/><rect x="352" y="112" width="48" height="48" transform="rotate(0,376,136)"/><rect x="352" y="400" width="48" height="48" transform="rotate(0,376,424)"/><rect x="400" y="112" width="48" height="48" transform="rotate(0,424,136)"/><rect x="400" y="160" width="48" height="48" transform="rotate(0,424,184)"/><rect x="400" y="208" width="48" height="48" transform="rotate(0,424,232)"/><rect x="400" y="256" width="48" height="48" transform="rotate(0,424,280)"/><rect x="400" y="304" width="48" height="48" transform="rotate(0,424,328)"/><rect x="400" y="352" width="48" height="48" transform="rotate(0,424,376)"/><rect x="400" y="400" width="48" height="48" transform="rotate(0,424,424)"/></clipPath><clipPath id="clip-path-corners-dot-color-0-0"><rect x="208" y="208" width="48" height="48" transform="rotate(0,232,232)"/><rect x="208" y="256" width="48" height="48" transform="rotate(0,232,280)"/><rect x="208" y="304" width="48" height="48" transform="rotate(0,232,328)"/><rect x="256" y="208" width="48" height="48" transform="rotate(0,280,232)"/><rect x="256" y="256" width="48" height="48" transform="rotate(0,280,280)"/><rect x="256" y="304" width="48" height="48" transform="rotate(0,280,328)"/><rect x="304" y="208" width="48" height="48" transform="rotate(0,328,232)"/><rect x="304" y="256" width="48" height="48" transform="rotate(0,328,280)"/><rect x="304" y="304" width="48" height="48" transform="rotate(0,328,328)"/></clipPath><clipPath id="clip-path-corners-square-color-1-0"><rect x="1552" y="112" width="48" height="48" transform="rotate(0,1576,136)"/><rect x="1552" y="160" width="48" height="48" transform="rotate(0,1576,184)"/><rect x="1552" y="208" width="48" height="48" transform="rotate(0,1576,232)"/><rect x="1552" y="256" width="48" height="48" transform="rotate(0,1576,280)"/><rect x="1552" y="304" width="48" height="48" transform="rotate(0,1576,328)"/><rect x="1552" y="352" width="48" height="48" transform="rotate(0,1576,376)"/><rect x="1552" y="400" width="48" height="48" transform="rotate(0,1576,424)"/><rect x="1600" y="112" width="48" height="48" transform="rotate(0,1624,136)"/><rect x="1600" y="400" width="48" height="48" transform="rotate(0,1624,424)"/><rect x="1648" y="112" width="48" height="48" transform="rotate(0,1672,136)"/><rect x="1648" y="400" width="48" height="48" transform="rotate(0,1672,424)"/><rect x="1696" y="112" width="48" height="48" transform="rotate(0,1720,136)"/><rect x="1696" y="400" width="48" height="48" transform="rotate(0,1720,424)"/><rect x="1744" y="112" width="48" height="48" transform="rotate(0,1768,136)"/><rect x="1744" y="400" width="48" height="48" transform="rotate(0,1768,424)"/><rect x="1792" y="112" width="48" height="48" transform="rotate(0,1816,136)"/><rect x="1792" y="400" width="48" height="48" transform="rotate(0,1816,424)"/><rect x="1840" y="112" width="48" height="48" transform="rotate(0,1864,136)"/><rect x="1840" y="160" width="48" height="48" transform="rotate(0,1864,184)"/><rect x="1840" y="208" width="48" height="48" transform="rotate(0,1864,232)"/><rect x="1840" y="256" width="48" height="48" transform="rotate(0,1864,280)"/><rect x="1840" y="304" width="48" height="48" transform="rotate(0,1864,328)"/><rect x="1840" y="352" width="48" height="48" transform="rotate(0,1864,376)"/><rect x="1840" y="400" width="48" height="48" transform="rotate(0,1864,424)"/></clipPath><clipPath id="clip-path-corners-dot-color-1-0"><rect x="1648" y="208" width="48" height="48" transform="rotate(0,1672,232)"/><rect x="1648" y="256" width="48" height="48" transform="rotate(0,1672,280)"/><rect x="1648" y="304" width="48" height="48" transform="rotate(0,1672,328)"/><rect x="1696" y="208" width="48" height="48" transform="rotate(0,1720,232)"/><rect x="1696" y="256" width="48" height="48" transform="rotate(0,1720,280)"/><rect x="1696" y="304" width="48" height="48" transform="rotate(0,1720,328)"/><rect x="1744" y="208" width="48" height="48" transform="rotate(0,1768,232)"/><rect x="1744" y="256" width="48" height="48" transform="rotate(0,1768,280)"/><rect x="1744" y="304" width="48" height="48" transform="rotate(0,1768,328)"/></clipPath><clipPath id="clip-path-corners-square-color-0-1"><rect x="112" y="1552" width="48" height="48" transform="rotate(0,136,1576)"/><rect x="112" y="1600" width="48" height="48" transform="rotate(0,136,1624)"/><rect x="112" y="1648" width="48" height="48" transform="rotate(0,136,1672)"/><rect x="112" y="1696" width="48" height="48" transform="rotate(0,136,1720)"/><rect x="112" y="1744" width="48" height="48" transform="rotate(0,136,1768)"/><rect x="112" y="1792" width="48" height="48" transform="rotate(0,136,1816)"/><rect x="112" y="1840" width="48" height="48" transform="rotate(0,136,1864)"/><rect x="160" y="1552" width="48" height="48" transform="rotate(0,184,1576)"/><rect x="160" y="1840" width="48" height="48" transform="rotate(0,184,1864)"/><rect x="208" y="1552" width="48" height="48" transform="rotate(0,232,1576)"/><rect x="208" y="1840" width="48" height="48" transform="rotate(0,232,1864)"/><rect x="256" y="1552" width="48" height="48" transform="rotate(0,280,1576)"/><rect x="256" y="1840" width="48" height="48" transform="rotate(0,280,1864)"/><rect x="304" y="1552" width="48" height="48" transform="rotate(0,328,1576)"/><rect x="304" y="1840" width="48" height="48" transform="rotate(0,328,1864)"/><rect x="352" y="1552" width="48" height="48" transform="rotate(0,376,1576)"/><rect x="352" y="1840" width="48" height="48" transform="rotate(0,376,1864)"/><rect x="400" y="1552" width="48" height="48" transform="rotate(0,424,1576)"/><rect x="400" y="1600" width="48" height="48" transform="rotate(0,424,1624)"/><rect x="400" y="1648" width="48" height="48" transform="rotate(0,424,1672)"/><rect x="400" y="1696" width="48" height="48" transform="rotate(0,424,1720)"/><rect x="400" y="1744" width="48" height="48" transform="rotate(0,424,1768)"/><rect x="400" y="1792" width="48" height="48" transform="rotate(0,424,1816)"/><rect x="400" y="1840" width="48" height="48" transform="rotate(0,424,1864)"/></clipPath><clipPath id="clip-path-corners-dot-color-0-1"><rect x="208" y="1648" width="48" height="48" transform="rotate(0,232,1672)"/><rect x="208" y="1696" width="48" height="48" transform="rotate(0,232,1720)"/><rect x="208" y="1744" width="48" height="48" transform="rotate(0,232,1768)"/><rect x="256" y="1648" width="48" height="48" transform="rotate(0,280,1672)"/><rect x="256" y="1696" width="48" height="48" transform="rotate(0,280,1720)"/><rect x="256" y="1744" width="48" height="48" transform="rotate(0,280,1768)"/><rect x="304" y="1648" width="48" height="48" transform="rotate(0,328,1672)"/><rect x="304" y="1696" width="48" height="48" transform="rotate(0,328,1720)"/><rect x="304" y="1744" width="48" height="48" transform="rotate(0,328,1768)"/></clipPath></defs><rect x="0" y="0" height="2000" width="2000" clip-path="url('#clip-path-background-color')" fill="#ffffff"/><rect x="112" y="112" height="1776" width="1776" clip-path="url('#clip-path-dot-color')" fill="#000000"/><rect x="112" y="112" height="336" width="336" clip-path="url('#clip-path-corners-square-color-0-0')" fill="#000000"/><rect x="208" y="208" height="144" width="144" clip-path="url('#clip-path-corners-dot-color-0-0')" fill="#000000"/><rect x="1552" y="112" height="336" width="336" clip-path="url('#clip-path-corners-square-color-1-0')" fill="#000000"/><rect x="1648" y="208" height="144" width="144" clip-path="url('#clip-path-corners-dot-color-1-0')" fill="#000000"/><rect x="112" y="1552" height="336" width="336" clip-path="url('#clip-path-corners-square-color-0-1')" fill="#000000"/><rect x="208" y="1648" height="144" width="144" clip-path="url('#clip-path-corners-dot-color-0-1')" fill="#000000"/></svg>